<?xml version="1.0" encoding="utf-8"?>
<!-- Generator: Adobe Illustrator 24.3.0, SVG Export Plug-In . SVG Version: 6.00 Build 0)  -->
<svg version="1.1" id="Layer_1" xmlns="http://www.w3.org/2000/svg" xmlns:xlink="http://www.w3.org/1999/xlink" x="0px" y="0px"
	 viewBox="0 0 1024 1024" style="enable-background:new 0 0 1024 1024;" xml:space="preserve">
<style type="text/css">
	.st0{fill:#FFFFFF;}
</style>
<g>
	<g>
		<path class="st0" d="M910.7,80.3c0-33.8-27.6-61.4-61.4-61.4H175.1c-33.8,0-61.4,27.6-61.4,61.4v139.1c0,16.7,6.8,32,17.7,43.1
			c-10.9,11.1-17.7,26.4-17.7,43.1v139.1c0,16.7,6.8,32,17.7,43.1c-10.9,11.1-17.7,26.4-17.7,43.1v139.1c0,33.8,27.6,61.4,61.4,61.4
			h674.1c33.8,0,61.4-27.6,61.4-61.4V530.9c0-16.7-6.8-32-17.7-43.1c10.9-11.1,17.7-26.4,17.7-43.1V305.6c0-16.7-6.8-32-17.7-43.1
			c10.9-11.1,17.7-26.4,17.7-43.1V80.3z M150.2,80.3c0-13.7,11.1-24.8,24.8-24.8h674.1c13.7,0,25,11.1,25,24.8v139.1
			c0,13.7-11.1,25-25,25H175.1c-13.7,0-24.8-11.1-24.8-25V80.3H150.2z M874.2,305.6v139.1c0,13.7-11.1,24.8-25,24.8H175.1
			c-13.7,0-24.8-11.1-24.8-24.8V305.6c0-13.7,11.1-24.8,24.8-24.8h674.1C863,280.8,874.2,291.9,874.2,305.6z M874.2,670.1
			c0,13.7-11.1,24.8-25,24.8H175.1c-13.7,0-24.8-11.1-24.8-24.8V530.9c0-13.7,11.1-24.8,24.8-24.8h674.1c13.7,0,25,11.1,25,24.8
			V670.1z"/>
		<path class="st0" d="M504.1,168.1h227.5c10.1,0,18.3-8.3,18.3-18.3c0-10.1-8.3-18.3-18.3-18.3H504.1c-10.1,0-18.3,8.3-18.3,18.3
			C485.8,159.8,494.1,168.1,504.1,168.1z"/>
		<circle class="st0" cx="318.5" cy="150" r="21.7"/>
		<path class="st0" d="M504.1,393.4h227.5c10.1,0,18.3-8.3,18.3-18.3s-8.3-18.3-18.3-18.3H504.1c-10.1,0-18.3,8.3-18.3,18.3
			C486,385.3,494.1,393.4,504.1,393.4z"/>
		<path class="st0" d="M731.7,582.3H504.1c-10.1,0-18.3,8.3-18.3,18.3s8.3,18.3,18.3,18.3h227.5c10.1,0,18.3-8.3,18.3-18.3
			S741.7,582.3,731.7,582.3z"/>
		<circle class="st0" cx="318.5" cy="375.3" r="21.7"/>
		<circle class="st0" cx="318.5" cy="600.6" r="21.7"/>
		<path class="st0" d="M870.2,860.5c-33.4,0-61.6,23-69.9,54H582.1c-6.6-25.2-26.4-44.9-51.5-51.5v-57.2c0-10.1-8.3-18.3-18.3-18.3
			c-10.1,0-18.3,8.3-18.3,18.3V863c-25.2,6.6-44.9,26.4-51.5,51.5H223.5c-8.1-31-36.2-54-69.9-54c-39.9,0-72.3,32.4-72.3,72.3
			c0,39.9,32.4,72.3,72.3,72.3c33.4,0,61.6-23,69.9-54h218.9c8.1,31,36.2,54,69.9,54s61.6-23,69.9-54h218.5c8.1,31,36.2,54,69.9,54
			c39.9,0,72.3-32.4,72.3-72.3C942.7,893,910.1,860.5,870.2,860.5z M153.8,968.5c-19.7,0-35.8-16.1-35.8-35.8s16.1-35.8,35.8-35.8
			s35.8,16.1,35.8,35.8S173.3,968.5,153.8,968.5z M512.2,968.5c-19.7,0-35.8-16.1-35.8-35.8s16.1-35.8,35.8-35.8
			c19.7,0,35.8,16.1,35.8,35.8S531.9,968.5,512.2,968.5z M870.2,968.5c-19.7,0-35.8-16.1-35.8-35.8s16.1-35.8,35.8-35.8
			s35.8,16.1,35.8,35.8S889.9,968.5,870.2,968.5z"/>
	</g>
</g>
</svg>
